<svg data-v-423bf9ae="" xmlns="http://www.w3.org/2000/svg" viewBox="0 0 471 96" class="iconLeft"><!----><!----><!----><g data-v-423bf9ae="" id="0ce74df3-935c-4d21-b264-ca6969edf750" fill="black" transform="matrix(4.441154624981523,0,0,4.441154624981523,122.60288046471189,6.434265561743395)"><path d="M2.35 5.25L5.85 5.25L0 12.60L8.19 12.60L8.60 10.29L4.86 10.29L10.82 2.80L2.77 2.80ZM14.70 8.41L12.78 8.41C13.00 7.75 13.39 7.42 13.97 7.42C14.22 7.42 14.41 7.49 14.53 7.62C14.64 7.76 14.70 7.98 14.70 8.27ZM12.49 9.94L17.32 9.94C17.46 9.40 17.53 8.93 17.53 8.53C17.53 6.81 16.39 5.95 14.13 5.95C12.94 5.95 11.91 6.33 11.05 7.08C10.18 7.83 9.74 8.74 9.74 9.81C9.74 11.76 10.95 12.74 13.36 12.74C14.21 12.74 14.98 12.56 15.67 12.20C16.37 11.84 16.90 11.34 17.26 10.68L14.85 10.29C14.64 10.80 14.15 11.06 13.40 11.06C13.10 11.06 12.87 10.99 12.72 10.84C12.57 10.70 12.49 10.44 12.49 10.07ZM21.49 8.55C21.63 8.02 21.94 7.76 22.43 7.76C22.69 7.76 22.85 7.83 22.92 7.98C22.98 8.13 22.99 8.36 22.93 8.68L22.25 12.60L25.12 12.60L25.89 8.26C26.02 7.52 25.93 6.96 25.62 6.58C25.31 6.20 24.71 6.01 23.81 6.01C22.95 6.01 22.25 6.39 21.73 7.15L21.91 6.16L19.18 6.16L18.05 12.60L20.78 12.60ZM29.96 8.55C30.10 8.02 30.41 7.76 30.90 7.76C31.16 7.76 31.32 7.83 31.39 7.98C31.45 8.13 31.46 8.36 31.40 8.68L30.72 12.60L33.59 12.60L34.36 8.26C34.49 7.52 34.40 6.96 34.09 6.58C33.78 6.20 33.18 6.01 32.28 6.01C31.42 6.01 30.72 6.39 30.20 7.15L30.38 6.16L27.65 6.16L26.52 12.60L29.25 12.60ZM36.32 3.89C36.32 4.27 36.46 4.60 36.76 4.86C37.05 5.13 37.41 5.26 37.83 5.26C38.25 5.26 38.61 5.13 38.90 4.86C39.19 4.60 39.34 4.27 39.34 3.89C39.34 3.51 39.19 3.18 38.90 2.92C38.61 2.65 38.25 2.52 37.83 2.52C37.41 2.52 37.05 2.65 36.76 2.92C36.46 3.18 36.32 3.51 36.32 3.89ZM36.11 6.16L34.97 12.60L37.59 12.60L38.72 6.16ZM45.05 2.80L43.33 12.60L47.60 12.60C48.50 12.60 49.32 12.49 50.07 12.26C50.82 12.03 51.48 11.69 52.06 11.23C52.63 10.78 53.08 10.18 53.40 9.44C53.73 8.70 53.89 7.84 53.89 6.87C53.89 5.71 53.42 4.74 52.50 3.96C51.58 3.19 50.33 2.80 48.76 2.80ZM47.45 5.11L48.64 5.11C49.41 5.11 50.01 5.25 50.43 5.54C50.85 5.82 51.06 6.30 51.06 6.99C51.06 8.12 50.75 8.96 50.13 9.49C49.52 10.02 48.72 10.29 47.73 10.29L46.54 10.29ZM58.93 5.95C58.16 5.95 57.44 6.10 56.75 6.40C56.06 6.70 55.49 7.15 55.03 7.77C54.58 8.39 54.35 9.10 54.35 9.91C54.35 10.86 54.67 11.58 55.31 12.07C55.96 12.56 56.84 12.81 57.95 12.81C58.71 12.81 59.44 12.66 60.12 12.36C60.81 12.06 61.38 11.61 61.84 10.99C62.30 10.37 62.52 9.66 62.52 8.85C62.52 7.90 62.20 7.17 61.56 6.68C60.91 6.19 60.04 5.95 58.93 5.95ZM57.18 9.76C57.18 9.24 57.31 8.82 57.59 8.48C57.86 8.15 58.23 7.98 58.67 7.98C59.01 7.98 59.26 8.07 59.43 8.26C59.60 8.45 59.68 8.70 59.68 9.02C59.68 9.52 59.55 9.94 59.28 10.28C59.01 10.61 58.64 10.78 58.18 10.78C57.51 10.78 57.18 10.44 57.18 9.76ZM66.16 9.62C66.16 9.21 66.30 8.88 66.58 8.63C66.85 8.38 67.17 8.26 67.54 8.26C67.81 8.26 68.04 8.33 68.22 8.48C68.41 8.63 68.50 8.85 68.50 9.14C68.50 9.57 68.36 9.90 68.07 10.14C67.78 10.38 67.46 10.50 67.12 10.50C66.83 10.50 66.60 10.42 66.42 10.26C66.25 10.10 66.16 9.89 66.16 9.62ZM62.79 13.09C62.79 14.04 63.06 14.77 63.60 15.27C64.13 15.78 65.07 16.03 66.42 16.03C67.45 16.03 68.34 15.75 69.09 15.18C69.84 14.61 70.32 13.70 70.53 12.46L71.64 6.16L69.05 6.16L68.84 7.34C68.53 6.46 67.84 6.02 66.77 6.02C66.38 6.02 65.99 6.11 65.58 6.29C65.17 6.46 64.79 6.71 64.44 7.03C64.09 7.36 63.80 7.77 63.57 8.29C63.34 8.80 63.22 9.36 63.22 9.95C63.22 11.81 64.08 12.74 65.80 12.74C66.63 12.74 67.40 12.32 68.11 11.48L67.94 12.46C67.86 12.93 67.68 13.29 67.40 13.54C67.13 13.80 66.78 13.93 66.36 13.93C66.04 13.93 65.80 13.87 65.65 13.75C65.49 13.64 65.41 13.42 65.41 13.09ZM72.38 9.83L71.40 11.72C72.63 12.45 73.74 12.81 74.72 12.81C76.80 12.81 77.84 12.07 77.84 10.60C77.84 9.74 77.35 9.12 76.38 8.75C76.27 8.70 76.12 8.64 75.93 8.57C75.74 8.50 75.59 8.45 75.49 8.41C75.39 8.38 75.27 8.33 75.15 8.27C75.03 8.22 74.94 8.16 74.89 8.11C74.84 8.06 74.82 8.01 74.82 7.95C74.82 7.79 74.99 7.71 75.35 7.71C75.64 7.71 75.98 7.79 76.37 7.93C76.76 8.08 77.08 8.27 77.32 8.51L78.27 6.72C77.23 6.21 76.34 5.95 75.60 5.95C74.63 5.95 73.86 6.16 73.30 6.57C72.73 6.98 72.45 7.50 72.45 8.13C72.45 8.43 72.49 8.69 72.56 8.92C72.63 9.14 72.73 9.33 72.88 9.48C73.03 9.64 73.17 9.76 73.28 9.83C73.40 9.91 73.57 10.01 73.78 10.14C73.95 10.23 74.17 10.32 74.46 10.40C74.74 10.49 74.96 10.56 75.12 10.63C75.27 10.69 75.35 10.78 75.35 10.88C75.35 11.06 75.24 11.14 75.03 11.14C74.73 11.14 74.31 11.00 73.77 10.71C73.22 10.42 72.76 10.13 72.38 9.83Z"></path></g><!----><g data-v-423bf9ae="" id="17cb9294-2884-44c7-9962-f49a86458275" transform="matrix(1.0287638346354167,0,0,1.0287638346354167,0.6985758697628626,0.37402619482490707)" stroke="none" fill="black"><path d="M33.76 57.567s9.522 2.969 11.253 3.34c1.732.371 3.958.617 4.205 1.361.248.74-.866 6.182-.743 8.16.124 1.98-1.608 9.523-1.483 10.018.124.494.618.863.618 1.359s-.989 7.297-.123 8.287c.864.988 2.843 2.719 3.957 2.473 1.112-.248 2.35-.369 2.845-.619.495-.248 1.236-1.234.617-1.854-.617-.619-1.854-2.475-1.854-3.092 0-.619-.125-4.328-.125-5.441s1.733-9.396 1.979-10.016c.248-.621 2.474-6.555 2.598-7.174.123-.619-.372-1.98 2.844-2.102 3.216-.125 5.441-.619 5.937-.99.494-.371-.867 3.215-.743 3.957.125.742.001 5.441-.246 6.432-.247.988-1.731 5.193-1.731 5.688s1.854 6.555 1.854 7.545c0 .988-.248 2.719 1.36 3.092 1.607.371 2.598.496 3.711.371 1.111-.125 2.474-.25 2.474-1.115s-1.115-2.104-1.733-2.844c-.618-.742-1.36-1.73-1.483-2.844s-.867-4.328.123-6.926c.99-2.596 3.216-11.746 3.216-14.221s.496-4.576.743-4.947c.246-.371 1.853-6.43 1.482-9.274-.371-2.845.62-11.377 1.609-12.367.989-.989 2.595-4.081 5.688-2.597 3.091 1.484 8.78 4.081 9.645 4.081.867 0 1.858-.866 3.094-1.484 1.236-.618 1.729-1.485 2.472-1.608.741-.124 2.227-1.113 1.855-2.226-.371-1.112-1.482-3.462-2.102-4.081-.618-.618-3.463-4.575-4.205-5.194-.743-.618-2.104-4.699-2.475-5.318-.37-.618-3.463-2.719-4.204-2.967-.739-.248-1.607-.99-1.607-1.36 0-.371.618-4.328.989-5.441.371-1.113.866-3.71.866-4.081 0-.372-1.852 1.485-2.348 2.721-.496 1.236-3.713 4.451-4.205 4.451-.497 0-.743-.618-.497-1.978.245-1.36 1.113-5.812.741-6.306-.371-.495-.618-.866-1.484.618-.864 1.484-3.834 5.688-4.327 7.419-.495 1.731-2.104 4.081-2.104 4.081s-6.8 5.813-8.779 7.916c-1.979 2.102-6.431 7.173-7.544 7.915-1.112.741-5.441 1.73-7.172 2.101-1.73.372-9.399.248-12.12.248s-6.678-.247-8.038 0c-1.36.247-6.679 2.473-7.915 3.339-1.236.865-2.844 1.978-4.822 2.225-1.979.25-8.286.372-10.141.125-1.855-.247-4.451-.864-5.193-.495-.743.37-1.732 1.237-.125 1.608 1.608.372 9.275 2.474 11.13 2.72 1.854.247 3.587.373 3.834.743.248.37-2.598 5.689-3.339 8.161-.742 2.473-3.585 7.916-3.71 9.029-.123 1.111.248 3.957-.37 5.191-.619 1.236-2.969 4.205-2.969 4.824 0 .617-1.236 4.449-1.236 5.439s-.742 5.938-1.484 6.555c-.743.619-.99 3.09-.371 4.205.618 1.113.619 2.473 1.855 2.35 1.236-.123.742 0 1.979-.494s2.103-.496 2.103-1.484-.371-3.463-.371-3.957 0-5.318.495-6.432c.494-1.111 2.103-4.947 3.215-5.936 1.113-.988 5.194-6.182 6.431-7.172s4.453-4.822 5.07-5.193c.618-.371 1.731-1.238 2.226.246s-.742 5.566-1.608 6.184c-.866.619-1.359 2.104-1.236 2.598s-.247 7.047-.371 8.531-.866 3.709.248 4.699c1.113.99 2.349 1.115 2.968 1.361.618.248 1.979.248 1.979.248s1.113-.744 1.484-.865c.371-.125-.495-2.969-.99-3.588-.494-.617-1.855-3.217-1.978-4.451-.124-1.236-.371-3.463 1.236-4.576 1.607-1.113 4.947-4.205 5.565-5.318.616-1.112 1.111-3.587 1.111-3.587z"></path></g><!----></svg>